<?xml version="1.0" encoding="UTF-8" standalone="no"?>
<!-- Created with Inkscape (http://www.inkscape.org/) -->

<svg
   xmlns:dc="http://purl.org/dc/elements/1.1/"
   xmlns:cc="http://creativecommons.org/ns#"
   xmlns:rdf="http://www.w3.org/1999/02/22-rdf-syntax-ns#"
   xmlns:svg="http://www.w3.org/2000/svg"
   xmlns="http://www.w3.org/2000/svg"
   xmlns:sodipodi="http://sodipodi.sourceforge.net/DTD/sodipodi-0.dtd"
   xmlns:inkscape="http://www.inkscape.org/namespaces/inkscape"
   id="svg2"
   version="1.1"
   inkscape:version="0.91 r13725"
   width="120"
   height="120"
   viewBox="0 0 600 600"
   sodipodi:docname="dot seamless pattern.svg">
  <metadata
     id="metadata8">
    <rdf:RDF>
      <cc:Work
         rdf:about="">
        <dc:format>image/svg+xml</dc:format>
        <dc:type
           rdf:resource="http://purl.org/dc/dcmitype/StillImage" />
        <dc:title></dc:title>
      </cc:Work>
    </rdf:RDF>
  </metadata>
  <defs
     id="defs6" />
  <sodipodi:namedview
     pagecolor="#ffffff"
     bordercolor="#666666"
     borderopacity="1"
     objecttolerance="10"
     gridtolerance="10"
     guidetolerance="10"
     inkscape:pageopacity="0"
     inkscape:pageshadow="2"
     inkscape:window-width="1916"
     inkscape:window-height="982"
     id="namedview4"
     showgrid="true"
     inkscape:snap-global="true"
     inkscape:zoom="0.385"
     inkscape:cx="152.5"
     inkscape:cy="117.26718"
     inkscape:window-x="287"
     inkscape:window-y="16"
     inkscape:window-maximized="0"
     inkscape:current-layer="svg2">
    <inkscape:grid
       type="xygrid"
       id="grid8076"
       empspacing="50"
       visible="false" />
  </sodipodi:namedview>
  <g
     id="g8106" />
  <g
     id="g8121"
     transform="translate(0,50)" />
  <g
     transform="translate(0,100)"
     id="g8149" />
  <g
     id="g8177"
     transform="translate(0,150)" />
  <g
     transform="translate(0,200)"
     id="g8205" />
  <g
     id="g8233"
     transform="translate(0,250)" />
  <g
     transform="translate(0,300)"
     id="g8261" />
  <g
     id="g8289"
     transform="translate(0,350)" />
  <g
     transform="translate(0,400)"
     id="g8317" />
  <g
     id="g8345"
     transform="translate(0,450)" />
  <g
     transform="translate(0,500)"
     id="g8373" />
  <g
     id="g8401"
     transform="translate(0,550)" />
  <g
     transform="translate(0,600)"
     id="g8429"
     style="fill:#c4c4c4;fill-opacity:1">
    <path
       id="ellipse8455"
       style="fill:#c4c4c4;fill-opacity:1;fill-rule:nonzero;stroke:#000000;stroke-width:0;stroke-miterlimit:4;stroke-dasharray:none;stroke-opacity:1"
       d="M 604.80186,2.8312206e-7 A 4.801856,4.8018556 0 0 1 600,4.8018558 4.801856,4.8018556 0 0 1 595.19814,2.8312206e-7 4.801856,4.8018556 0 0 1 600,-4.8018553 4.801856,4.8018556 0 0 1 604.80186,2.8312206e-7 Z m -50,0 A 4.801856,4.8018556 0 0 1 550,4.8018558 4.801856,4.8018556 0 0 1 545.19814,2.8312206e-7 4.801856,4.8018556 0 0 1 550,-4.8018553 4.801856,4.8018556 0 0 1 554.80186,2.8312206e-7 Z m -50,0 A 4.801856,4.8018556 0 0 1 500,4.8018558 4.801856,4.8018556 0 0 1 495.19814,2.8312206e-7 4.801856,4.8018556 0 0 1 500,-4.8018553 4.801856,4.8018556 0 0 1 504.80186,2.8312206e-7 Z m -50,0 A 4.801856,4.8018556 0 0 1 450,4.8018558 4.801856,4.8018556 0 0 1 445.19814,2.8312206e-7 4.801856,4.8018556 0 0 1 450,-4.8018553 4.801856,4.8018556 0 0 1 454.80186,2.8312206e-7 Z m -50,0 A 4.801856,4.8018556 0 0 1 400,4.8018558 4.801856,4.8018556 0 0 1 395.19814,2.8312206e-7 4.801856,4.8018556 0 0 1 400,-4.8018553 4.801856,4.8018556 0 0 1 404.80186,2.8312206e-7 Z m -50,0 A 4.801856,4.8018556 0 0 1 350,4.8018558 4.801856,4.8018556 0 0 1 345.19814,2.8312206e-7 4.801856,4.8018556 0 0 1 350,-4.8018553 4.801856,4.8018556 0 0 1 354.80186,2.8312206e-7 Z m -50,0 A 4.801856,4.8018556 0 0 1 300,4.8018558 4.801856,4.8018556 0 0 1 295.19814,2.8312206e-7 4.801856,4.8018556 0 0 1 300,-4.8018553 4.801856,4.8018556 0 0 1 304.80186,2.8312206e-7 Z m -50,0 A 4.801856,4.8018556 0 0 1 250,4.8018558 4.801856,4.8018556 0 0 1 245.19814,2.8312206e-7 4.801856,4.8018556 0 0 1 250,-4.8018553 4.801856,4.8018556 0 0 1 254.80186,2.8312206e-7 Z m -50,0 A 4.801856,4.8018556 0 0 1 200,4.8018558 4.801856,4.8018556 0 0 1 195.19814,2.8312206e-7 4.801856,4.8018556 0 0 1 200,-4.8018553 4.801856,4.8018556 0 0 1 204.80186,2.8312206e-7 Z m -50,0 A 4.801856,4.8018556 0 0 1 150,4.8018558 4.801856,4.8018556 0 0 1 145.19814,2.8312206e-7 4.801856,4.8018556 0 0 1 150,-4.8018553 4.801856,4.8018556 0 0 1 154.80186,2.8312206e-7 Z m -50,0 A 4.801856,4.8018556 0 0 1 100,4.8018558 4.801856,4.8018556 0 0 1 95.198144,2.8312206e-7 4.801856,4.8018556 0 0 1 100,-4.8018553 4.801856,4.8018556 0 0 1 104.80186,2.8312206e-7 Z m -50.000004,0 A 4.801856,4.8018556 0 0 1 50,4.8018558 4.801856,4.8018556 0 0 1 45.198144,2.8312206e-7 4.801856,4.8018556 0 0 1 50,-4.8018553 4.801856,4.8018556 0 0 1 54.801856,2.8312206e-7 Z m -49.9999998,0 A 4.801856,4.8018556 0 0 1 1.937151e-7,4.8018558 4.801856,4.8018556 0 0 1 -4.8018558,2.8312206e-7 4.801856,4.8018556 0 0 1 1.9371509e-7,-4.8018553 4.801856,4.8018556 0 0 1 4.8018562,2.8312206e-7 Z M 604.80186,-50 A 4.801856,4.8018556 0 0 1 600,-45.198144 4.801856,4.8018556 0 0 1 595.19814,-50 4.801856,4.8018556 0 0 1 600,-54.801855 4.801856,4.8018556 0 0 1 604.80186,-50 Z m -50,0 A 4.801856,4.8018556 0 0 1 550,-45.198144 4.801856,4.8018556 0 0 1 545.19814,-50 4.801856,4.8018556 0 0 1 550,-54.801855 4.801856,4.8018556 0 0 1 554.80186,-50 Z m -50,0 A 4.801856,4.8018556 0 0 1 500,-45.198144 4.801856,4.8018556 0 0 1 495.19814,-50 4.801856,4.8018556 0 0 1 500,-54.801855 4.801856,4.8018556 0 0 1 504.80186,-50 Z m -50,0 A 4.801856,4.8018556 0 0 1 450,-45.198144 4.801856,4.8018556 0 0 1 445.19814,-50 4.801856,4.8018556 0 0 1 450,-54.801855 4.801856,4.8018556 0 0 1 454.80186,-50 Z m -50,0 A 4.801856,4.8018556 0 0 1 400,-45.198144 4.801856,4.8018556 0 0 1 395.19814,-50 4.801856,4.8018556 0 0 1 400,-54.801855 4.801856,4.8018556 0 0 1 404.80186,-50 Z m -50,0 A 4.801856,4.8018556 0 0 1 350,-45.198144 4.801856,4.8018556 0 0 1 345.19814,-50 4.801856,4.8018556 0 0 1 350,-54.801855 4.801856,4.8018556 0 0 1 354.80186,-50 Z m -50,0 A 4.801856,4.8018556 0 0 1 300,-45.198144 4.801856,4.8018556 0 0 1 295.19814,-50 4.801856,4.8018556 0 0 1 300,-54.801855 4.801856,4.8018556 0 0 1 304.80186,-50 Z m -50,0 A 4.801856,4.8018556 0 0 1 250,-45.198144 4.801856,4.8018556 0 0 1 245.19814,-50 4.801856,4.8018556 0 0 1 250,-54.801855 4.801856,4.8018556 0 0 1 254.80186,-50 Z m -50,0 A 4.801856,4.8018556 0 0 1 200,-45.198144 4.801856,4.8018556 0 0 1 195.19814,-50 4.801856,4.8018556 0 0 1 200,-54.801855 4.801856,4.8018556 0 0 1 204.80186,-50 Z m -50,0 A 4.801856,4.8018556 0 0 1 150,-45.198144 4.801856,4.8018556 0 0 1 145.19814,-50 4.801856,4.8018556 0 0 1 150,-54.801855 4.801856,4.8018556 0 0 1 154.80186,-50 Z m -50,0 A 4.801856,4.8018556 0 0 1 100,-45.198144 4.801856,4.8018556 0 0 1 95.198144,-50 4.801856,4.8018556 0 0 1 100,-54.801855 4.801856,4.8018556 0 0 1 104.80186,-50 Z m -50.000004,0 A 4.801856,4.8018556 0 0 1 50,-45.198144 4.801856,4.8018556 0 0 1 45.198144,-50 4.801856,4.8018556 0 0 1 50,-54.801855 4.801856,4.8018556 0 0 1 54.801856,-50 Z M 4.8018562,-50 A 4.801856,4.8018556 0 0 1 1.937151e-7,-45.198144 4.801856,4.8018556 0 0 1 -4.8018558,-50 4.801856,4.8018556 0 0 1 1.9371509e-7,-54.801855 4.801856,4.8018556 0 0 1 4.8018562,-50 Z M 604.80186,-100 A 4.801856,4.8018556 0 0 1 600,-95.198144 4.801856,4.8018556 0 0 1 595.19814,-100 4.801856,4.8018556 0 0 1 600,-104.80186 4.801856,4.8018556 0 0 1 604.80186,-100 Z m -50,0 A 4.801856,4.8018556 0 0 1 550,-95.198144 4.801856,4.8018556 0 0 1 545.19814,-100 4.801856,4.8018556 0 0 1 550,-104.80186 4.801856,4.8018556 0 0 1 554.80186,-100 Z m -50,0 A 4.801856,4.8018556 0 0 1 500,-95.198144 4.801856,4.8018556 0 0 1 495.19814,-100 4.801856,4.8018556 0 0 1 500,-104.80186 4.801856,4.8018556 0 0 1 504.80186,-100 Z m -50,0 A 4.801856,4.8018556 0 0 1 450,-95.198144 4.801856,4.8018556 0 0 1 445.19814,-100 4.801856,4.8018556 0 0 1 450,-104.80186 4.801856,4.8018556 0 0 1 454.80186,-100 Z m -50,0 A 4.801856,4.8018556 0 0 1 400,-95.198144 4.801856,4.8018556 0 0 1 395.19814,-100 4.801856,4.8018556 0 0 1 400,-104.80186 4.801856,4.8018556 0 0 1 404.80186,-100 Z m -50,0 A 4.801856,4.8018556 0 0 1 350,-95.198144 4.801856,4.8018556 0 0 1 345.19814,-100 4.801856,4.8018556 0 0 1 350,-104.80186 4.801856,4.8018556 0 0 1 354.80186,-100 Z m -50,0 A 4.801856,4.8018556 0 0 1 300,-95.198144 4.801856,4.8018556 0 0 1 295.19814,-100 4.801856,4.8018556 0 0 1 300,-104.80186 4.801856,4.8018556 0 0 1 304.80186,-100 Z m -50,0 A 4.801856,4.8018556 0 0 1 250,-95.198144 4.801856,4.8018556 0 0 1 245.19814,-100 4.801856,4.8018556 0 0 1 250,-104.80186 4.801856,4.8018556 0 0 1 254.80186,-100 Z m -50,0 A 4.801856,4.8018556 0 0 1 200,-95.198144 4.801856,4.8018556 0 0 1 195.19814,-100 4.801856,4.8018556 0 0 1 200,-104.80186 4.801856,4.8018556 0 0 1 204.80186,-100 Z m -50,0 A 4.801856,4.8018556 0 0 1 150,-95.198144 4.801856,4.8018556 0 0 1 145.19814,-100 4.801856,4.8018556 0 0 1 150,-104.80186 4.801856,4.8018556 0 0 1 154.80186,-100 Z m -50,0 A 4.801856,4.8018556 0 0 1 100,-95.198144 4.801856,4.8018556 0 0 1 95.198144,-100 4.801856,4.8018556 0 0 1 100,-104.80186 4.801856,4.8018556 0 0 1 104.80186,-100 Z m -50.000004,0 A 4.801856,4.8018556 0 0 1 50,-95.198144 4.801856,4.8018556 0 0 1 45.198144,-100 4.801856,4.8018556 0 0 1 50,-104.80186 4.801856,4.8018556 0 0 1 54.801856,-100 Z m -49.9999998,0 A 4.801856,4.8018556 0 0 1 1.937151e-7,-95.198144 4.801856,4.8018556 0 0 1 -4.8018558,-100 4.801856,4.8018556 0 0 1 1.9371509e-7,-104.80186 4.801856,4.8018556 0 0 1 4.8018562,-100 Z M 604.80186,-150 A 4.801856,4.8018556 0 0 1 600,-145.19814 4.801856,4.8018556 0 0 1 595.19814,-150 4.801856,4.8018556 0 0 1 600,-154.80186 4.801856,4.8018556 0 0 1 604.80186,-150 Z m -50,0 A 4.801856,4.8018556 0 0 1 550,-145.19814 4.801856,4.8018556 0 0 1 545.19814,-150 4.801856,4.8018556 0 0 1 550,-154.80186 4.801856,4.8018556 0 0 1 554.80186,-150 Z m -50,0 A 4.801856,4.8018556 0 0 1 500,-145.19814 4.801856,4.8018556 0 0 1 495.19814,-150 4.801856,4.8018556 0 0 1 500,-154.80186 4.801856,4.8018556 0 0 1 504.80186,-150 Z m -50,0 A 4.801856,4.8018556 0 0 1 450,-145.19814 4.801856,4.8018556 0 0 1 445.19814,-150 4.801856,4.8018556 0 0 1 450,-154.80186 4.801856,4.8018556 0 0 1 454.80186,-150 Z m -50,0 A 4.801856,4.8018556 0 0 1 400,-145.19814 4.801856,4.8018556 0 0 1 395.19814,-150 4.801856,4.8018556 0 0 1 400,-154.80186 4.801856,4.8018556 0 0 1 404.80186,-150 Z m -50,0 A 4.801856,4.8018556 0 0 1 350,-145.19814 4.801856,4.8018556 0 0 1 345.19814,-150 4.801856,4.8018556 0 0 1 350,-154.80186 4.801856,4.8018556 0 0 1 354.80186,-150 Z m -50,0 A 4.801856,4.8018556 0 0 1 300,-145.19814 4.801856,4.8018556 0 0 1 295.19814,-150 4.801856,4.8018556 0 0 1 300,-154.80186 4.801856,4.8018556 0 0 1 304.80186,-150 Z m -50,0 A 4.801856,4.8018556 0 0 1 250,-145.19814 4.801856,4.8018556 0 0 1 245.19814,-150 4.801856,4.8018556 0 0 1 250,-154.80186 4.801856,4.8018556 0 0 1 254.80186,-150 Z m -50,0 A 4.801856,4.8018556 0 0 1 200,-145.19814 4.801856,4.8018556 0 0 1 195.19814,-150 4.801856,4.8018556 0 0 1 200,-154.80186 4.801856,4.8018556 0 0 1 204.80186,-150 Z m -50,0 A 4.801856,4.8018556 0 0 1 150,-145.19814 4.801856,4.8018556 0 0 1 145.19814,-150 4.801856,4.8018556 0 0 1 150,-154.80186 4.801856,4.8018556 0 0 1 154.80186,-150 Z m -50,0 A 4.801856,4.8018556 0 0 1 100,-145.19814 4.801856,4.8018556 0 0 1 95.198144,-150 4.801856,4.8018556 0 0 1 100,-154.80186 4.801856,4.8018556 0 0 1 104.80186,-150 Z m -50.000004,0 A 4.801856,4.8018556 0 0 1 50,-145.19814 4.801856,4.8018556 0 0 1 45.198144,-150 4.801856,4.8018556 0 0 1 50,-154.80186 4.801856,4.8018556 0 0 1 54.801856,-150 Z m -49.9999998,0 A 4.801856,4.8018556 0 0 1 1.937151e-7,-145.19814 4.801856,4.8018556 0 0 1 -4.8018558,-150 4.801856,4.8018556 0 0 1 1.9371509e-7,-154.80186 4.801856,4.8018556 0 0 1 4.8018562,-150 Z M 604.80186,-200 A 4.801856,4.8018556 0 0 1 600,-195.19814 4.801856,4.8018556 0 0 1 595.19814,-200 4.801856,4.8018556 0 0 1 600,-204.80186 4.801856,4.8018556 0 0 1 604.80186,-200 Z m -50,0 A 4.801856,4.8018556 0 0 1 550,-195.19814 4.801856,4.8018556 0 0 1 545.19814,-200 4.801856,4.8018556 0 0 1 550,-204.80186 4.801856,4.8018556 0 0 1 554.80186,-200 Z m -50,0 A 4.801856,4.8018556 0 0 1 500,-195.19814 4.801856,4.8018556 0 0 1 495.19814,-200 4.801856,4.8018556 0 0 1 500,-204.80186 4.801856,4.8018556 0 0 1 504.80186,-200 Z m -50,0 A 4.801856,4.8018556 0 0 1 450,-195.19814 4.801856,4.8018556 0 0 1 445.19814,-200 4.801856,4.8018556 0 0 1 450,-204.80186 4.801856,4.8018556 0 0 1 454.80186,-200 Z m -50,0 A 4.801856,4.8018556 0 0 1 400,-195.19814 4.801856,4.8018556 0 0 1 395.19814,-200 4.801856,4.8018556 0 0 1 400,-204.80186 4.801856,4.8018556 0 0 1 404.80186,-200 Z m -50,0 A 4.801856,4.8018556 0 0 1 350,-195.19814 4.801856,4.8018556 0 0 1 345.19814,-200 4.801856,4.8018556 0 0 1 350,-204.80186 4.801856,4.8018556 0 0 1 354.80186,-200 Z m -50,0 A 4.801856,4.8018556 0 0 1 300,-195.19814 4.801856,4.8018556 0 0 1 295.19814,-200 4.801856,4.8018556 0 0 1 300,-204.80186 4.801856,4.8018556 0 0 1 304.80186,-200 Z m -50,0 A 4.801856,4.8018556 0 0 1 250,-195.19814 4.801856,4.8018556 0 0 1 245.19814,-200 4.801856,4.8018556 0 0 1 250,-204.80186 4.801856,4.8018556 0 0 1 254.80186,-200 Z m -50,0 A 4.801856,4.8018556 0 0 1 200,-195.19814 4.801856,4.8018556 0 0 1 195.19814,-200 4.801856,4.8018556 0 0 1 200,-204.80186 4.801856,4.8018556 0 0 1 204.80186,-200 Z m -50,0 A 4.801856,4.8018556 0 0 1 150,-195.19814 4.801856,4.8018556 0 0 1 145.19814,-200 4.801856,4.8018556 0 0 1 150,-204.80186 4.801856,4.8018556 0 0 1 154.80186,-200 Z m -50,0 A 4.801856,4.8018556 0 0 1 100,-195.19814 4.801856,4.8018556 0 0 1 95.198144,-200 4.801856,4.8018556 0 0 1 100,-204.80186 4.801856,4.8018556 0 0 1 104.80186,-200 Z m -50.000004,0 A 4.801856,4.8018556 0 0 1 50,-195.19814 4.801856,4.8018556 0 0 1 45.198144,-200 4.801856,4.8018556 0 0 1 50,-204.80186 4.801856,4.8018556 0 0 1 54.801856,-200 Z m -49.9999998,0 A 4.801856,4.8018556 0 0 1 1.937151e-7,-195.19814 4.801856,4.8018556 0 0 1 -4.8018558,-200 4.801856,4.8018556 0 0 1 1.9371509e-7,-204.80186 4.801856,4.8018556 0 0 1 4.8018562,-200 Z M 604.80186,-250 A 4.801856,4.8018556 0 0 1 600,-245.19814 4.801856,4.8018556 0 0 1 595.19814,-250 4.801856,4.8018556 0 0 1 600,-254.80186 4.801856,4.8018556 0 0 1 604.80186,-250 Z m -50,0 A 4.801856,4.8018556 0 0 1 550,-245.19814 4.801856,4.8018556 0 0 1 545.19814,-250 4.801856,4.8018556 0 0 1 550,-254.80186 4.801856,4.8018556 0 0 1 554.80186,-250 Z m -50,0 A 4.801856,4.8018556 0 0 1 500,-245.19814 4.801856,4.8018556 0 0 1 495.19814,-250 4.801856,4.8018556 0 0 1 500,-254.80186 4.801856,4.8018556 0 0 1 504.80186,-250 Z m -50,0 A 4.801856,4.8018556 0 0 1 450,-245.19814 4.801856,4.8018556 0 0 1 445.19814,-250 4.801856,4.8018556 0 0 1 450,-254.80186 4.801856,4.8018556 0 0 1 454.80186,-250 Z m -50,0 A 4.801856,4.8018556 0 0 1 400,-245.19814 4.801856,4.8018556 0 0 1 395.19814,-250 4.801856,4.8018556 0 0 1 400,-254.80186 4.801856,4.8018556 0 0 1 404.80186,-250 Z m -50,0 A 4.801856,4.8018556 0 0 1 350,-245.19814 4.801856,4.8018556 0 0 1 345.19814,-250 4.801856,4.8018556 0 0 1 350,-254.80186 4.801856,4.8018556 0 0 1 354.80186,-250 Z m -50,0 A 4.801856,4.8018556 0 0 1 300,-245.19814 4.801856,4.8018556 0 0 1 295.19814,-250 4.801856,4.8018556 0 0 1 300,-254.80186 4.801856,4.8018556 0 0 1 304.80186,-250 Z m -50,0 A 4.801856,4.8018556 0 0 1 250,-245.19814 4.801856,4.8018556 0 0 1 245.19814,-250 4.801856,4.8018556 0 0 1 250,-254.80186 4.801856,4.8018556 0 0 1 254.80186,-250 Z m -50,0 A 4.801856,4.8018556 0 0 1 200,-245.19814 4.801856,4.8018556 0 0 1 195.19814,-250 4.801856,4.8018556 0 0 1 200,-254.80186 4.801856,4.8018556 0 0 1 204.80186,-250 Z m -50,0 A 4.801856,4.8018556 0 0 1 150,-245.19814 4.801856,4.8018556 0 0 1 145.19814,-250 4.801856,4.8018556 0 0 1 150,-254.80186 4.801856,4.8018556 0 0 1 154.80186,-250 Z m -50,0 A 4.801856,4.8018556 0 0 1 100,-245.19814 4.801856,4.8018556 0 0 1 95.198144,-250 4.801856,4.8018556 0 0 1 100,-254.80186 4.801856,4.8018556 0 0 1 104.80186,-250 Z m -50.000004,0 A 4.801856,4.8018556 0 0 1 50,-245.19814 4.801856,4.8018556 0 0 1 45.198144,-250 4.801856,4.8018556 0 0 1 50,-254.80186 4.801856,4.8018556 0 0 1 54.801856,-250 Z m -49.9999998,0 A 4.801856,4.8018556 0 0 1 1.937151e-7,-245.19814 4.801856,4.8018556 0 0 1 -4.8018558,-250 4.801856,4.8018556 0 0 1 1.9371509e-7,-254.80186 4.801856,4.8018556 0 0 1 4.8018562,-250 Z M 604.80186,-300 A 4.801856,4.8018556 0 0 1 600,-295.19814 4.801856,4.8018556 0 0 1 595.19814,-300 4.801856,4.8018556 0 0 1 600,-304.80186 4.801856,4.8018556 0 0 1 604.80186,-300 Z m -50,0 A 4.801856,4.8018556 0 0 1 550,-295.19814 4.801856,4.8018556 0 0 1 545.19814,-300 4.801856,4.8018556 0 0 1 550,-304.80186 4.801856,4.8018556 0 0 1 554.80186,-300 Z m -50,0 A 4.801856,4.8018556 0 0 1 500,-295.19814 4.801856,4.8018556 0 0 1 495.19814,-300 4.801856,4.8018556 0 0 1 500,-304.80186 4.801856,4.8018556 0 0 1 504.80186,-300 Z m -50,0 A 4.801856,4.8018556 0 0 1 450,-295.19814 4.801856,4.8018556 0 0 1 445.19814,-300 4.801856,4.8018556 0 0 1 450,-304.80186 4.801856,4.8018556 0 0 1 454.80186,-300 Z m -50,0 A 4.801856,4.8018556 0 0 1 400,-295.19814 4.801856,4.8018556 0 0 1 395.19814,-300 4.801856,4.8018556 0 0 1 400,-304.80186 4.801856,4.8018556 0 0 1 404.80186,-300 Z m -50,0 A 4.801856,4.8018556 0 0 1 350,-295.19814 4.801856,4.8018556 0 0 1 345.19814,-300 4.801856,4.8018556 0 0 1 350,-304.80186 4.801856,4.8018556 0 0 1 354.80186,-300 Z m -50,0 A 4.801856,4.8018556 0 0 1 300,-295.19814 4.801856,4.8018556 0 0 1 295.19814,-300 4.801856,4.8018556 0 0 1 300,-304.80186 4.801856,4.8018556 0 0 1 304.80186,-300 Z m -50,0 A 4.801856,4.8018556 0 0 1 250,-295.19814 4.801856,4.8018556 0 0 1 245.19814,-300 4.801856,4.8018556 0 0 1 250,-304.80186 4.801856,4.8018556 0 0 1 254.80186,-300 Z m -50,0 A 4.801856,4.8018556 0 0 1 200,-295.19814 4.801856,4.8018556 0 0 1 195.19814,-300 4.801856,4.8018556 0 0 1 200,-304.80186 4.801856,4.8018556 0 0 1 204.80186,-300 Z m -50,0 A 4.801856,4.8018556 0 0 1 150,-295.19814 4.801856,4.8018556 0 0 1 145.19814,-300 4.801856,4.8018556 0 0 1 150,-304.80186 4.801856,4.8018556 0 0 1 154.80186,-300 Z m -50,0 A 4.801856,4.8018556 0 0 1 100,-295.19814 4.801856,4.8018556 0 0 1 95.198144,-300 4.801856,4.8018556 0 0 1 100,-304.80186 4.801856,4.8018556 0 0 1 104.80186,-300 Z m -50.000004,0 A 4.801856,4.8018556 0 0 1 50,-295.19814 4.801856,4.8018556 0 0 1 45.198144,-300 4.801856,4.8018556 0 0 1 50,-304.80186 4.801856,4.8018556 0 0 1 54.801856,-300 Z m -49.9999998,0 A 4.801856,4.8018556 0 0 1 1.937151e-7,-295.19814 4.801856,4.8018556 0 0 1 -4.8018558,-300 4.801856,4.8018556 0 0 1 1.9371509e-7,-304.80186 4.801856,4.8018556 0 0 1 4.8018562,-300 Z M 604.80186,-350 A 4.801856,4.8018556 0 0 1 600,-345.19814 4.801856,4.8018556 0 0 1 595.19814,-350 4.801856,4.8018556 0 0 1 600,-354.80186 4.801856,4.8018556 0 0 1 604.80186,-350 Z m -50,0 A 4.801856,4.8018556 0 0 1 550,-345.19814 4.801856,4.8018556 0 0 1 545.19814,-350 4.801856,4.8018556 0 0 1 550,-354.80186 4.801856,4.8018556 0 0 1 554.80186,-350 Z m -50,0 A 4.801856,4.8018556 0 0 1 500,-345.19814 4.801856,4.8018556 0 0 1 495.19814,-350 4.801856,4.8018556 0 0 1 500,-354.80186 4.801856,4.8018556 0 0 1 504.80186,-350 Z m -50,0 A 4.801856,4.8018556 0 0 1 450,-345.19814 4.801856,4.8018556 0 0 1 445.19814,-350 4.801856,4.8018556 0 0 1 450,-354.80186 4.801856,4.8018556 0 0 1 454.80186,-350 Z m -50,0 A 4.801856,4.8018556 0 0 1 400,-345.19814 4.801856,4.8018556 0 0 1 395.19814,-350 4.801856,4.8018556 0 0 1 400,-354.80186 4.801856,4.8018556 0 0 1 404.80186,-350 Z m -50,0 A 4.801856,4.8018556 0 0 1 350,-345.19814 4.801856,4.8018556 0 0 1 345.19814,-350 4.801856,4.8018556 0 0 1 350,-354.80186 4.801856,4.8018556 0 0 1 354.80186,-350 Z m -50,0 A 4.801856,4.8018556 0 0 1 300,-345.19814 4.801856,4.8018556 0 0 1 295.19814,-350 4.801856,4.8018556 0 0 1 300,-354.80186 4.801856,4.8018556 0 0 1 304.80186,-350 Z m -50,0 A 4.801856,4.8018556 0 0 1 250,-345.19814 4.801856,4.8018556 0 0 1 245.19814,-350 4.801856,4.8018556 0 0 1 250,-354.80186 4.801856,4.8018556 0 0 1 254.80186,-350 Z m -50,0 A 4.801856,4.8018556 0 0 1 200,-345.19814 4.801856,4.8018556 0 0 1 195.19814,-350 4.801856,4.8018556 0 0 1 200,-354.80186 4.801856,4.8018556 0 0 1 204.80186,-350 Z m -50,0 A 4.801856,4.8018556 0 0 1 150,-345.19814 4.801856,4.8018556 0 0 1 145.19814,-350 4.801856,4.8018556 0 0 1 150,-354.80186 4.801856,4.8018556 0 0 1 154.80186,-350 Z m -50,0 A 4.801856,4.8018556 0 0 1 100,-345.19814 4.801856,4.8018556 0 0 1 95.198144,-350 4.801856,4.8018556 0 0 1 100,-354.80186 4.801856,4.8018556 0 0 1 104.80186,-350 Z m -50.000004,0 A 4.801856,4.8018556 0 0 1 50,-345.19814 4.801856,4.8018556 0 0 1 45.198144,-350 4.801856,4.8018556 0 0 1 50,-354.80186 4.801856,4.8018556 0 0 1 54.801856,-350 Z m -49.9999998,0 A 4.801856,4.8018556 0 0 1 1.937151e-7,-345.19814 4.801856,4.8018556 0 0 1 -4.8018558,-350 4.801856,4.8018556 0 0 1 1.9371509e-7,-354.80186 4.801856,4.8018556 0 0 1 4.8018562,-350 Z M 604.80186,-400 A 4.801856,4.8018556 0 0 1 600,-395.19814 4.801856,4.8018556 0 0 1 595.19814,-400 4.801856,4.8018556 0 0 1 600,-404.80186 4.801856,4.8018556 0 0 1 604.80186,-400 Z m -50,0 A 4.801856,4.8018556 0 0 1 550,-395.19814 4.801856,4.8018556 0 0 1 545.19814,-400 4.801856,4.8018556 0 0 1 550,-404.80186 4.801856,4.8018556 0 0 1 554.80186,-400 Z m -50,0 A 4.801856,4.8018556 0 0 1 500,-395.19814 4.801856,4.8018556 0 0 1 495.19814,-400 4.801856,4.8018556 0 0 1 500,-404.80186 4.801856,4.8018556 0 0 1 504.80186,-400 Z m -50,0 A 4.801856,4.8018556 0 0 1 450,-395.19814 4.801856,4.8018556 0 0 1 445.19814,-400 4.801856,4.8018556 0 0 1 450,-404.80186 4.801856,4.8018556 0 0 1 454.80186,-400 Z m -50,0 A 4.801856,4.8018556 0 0 1 400,-395.19814 4.801856,4.8018556 0 0 1 395.19814,-400 4.801856,4.8018556 0 0 1 400,-404.80186 4.801856,4.8018556 0 0 1 404.80186,-400 Z m -50,0 A 4.801856,4.8018556 0 0 1 350,-395.19814 4.801856,4.8018556 0 0 1 345.19814,-400 4.801856,4.8018556 0 0 1 350,-404.80186 4.801856,4.8018556 0 0 1 354.80186,-400 Z m -50,0 A 4.801856,4.8018556 0 0 1 300,-395.19814 4.801856,4.8018556 0 0 1 295.19814,-400 4.801856,4.8018556 0 0 1 300,-404.80186 4.801856,4.8018556 0 0 1 304.80186,-400 Z m -50,0 A 4.801856,4.8018556 0 0 1 250,-395.19814 4.801856,4.8018556 0 0 1 245.19814,-400 4.801856,4.8018556 0 0 1 250,-404.80186 4.801856,4.8018556 0 0 1 254.80186,-400 Z m -50,0 A 4.801856,4.8018556 0 0 1 200,-395.19814 4.801856,4.8018556 0 0 1 195.19814,-400 4.801856,4.8018556 0 0 1 200,-404.80186 4.801856,4.8018556 0 0 1 204.80186,-400 Z m -50,0 A 4.801856,4.8018556 0 0 1 150,-395.19814 4.801856,4.8018556 0 0 1 145.19814,-400 4.801856,4.8018556 0 0 1 150,-404.80186 4.801856,4.8018556 0 0 1 154.80186,-400 Z m -50,0 A 4.801856,4.8018556 0 0 1 100,-395.19814 4.801856,4.8018556 0 0 1 95.198144,-400 4.801856,4.8018556 0 0 1 100,-404.80186 4.801856,4.8018556 0 0 1 104.80186,-400 Z m -50.000004,0 A 4.801856,4.8018556 0 0 1 50,-395.19814 4.801856,4.8018556 0 0 1 45.198144,-400 4.801856,4.8018556 0 0 1 50,-404.80186 4.801856,4.8018556 0 0 1 54.801856,-400 Z m -49.9999998,0 A 4.801856,4.8018556 0 0 1 1.937151e-7,-395.19814 4.801856,4.8018556 0 0 1 -4.8018558,-400 4.801856,4.8018556 0 0 1 1.9371509e-7,-404.80186 4.801856,4.8018556 0 0 1 4.8018562,-400 Z M 604.80186,-450 A 4.801856,4.8018556 0 0 1 600,-445.19814 4.801856,4.8018556 0 0 1 595.19814,-450 4.801856,4.8018556 0 0 1 600,-454.80186 4.801856,4.8018556 0 0 1 604.80186,-450 Z m -50,0 A 4.801856,4.8018556 0 0 1 550,-445.19814 4.801856,4.8018556 0 0 1 545.19814,-450 4.801856,4.8018556 0 0 1 550,-454.80186 4.801856,4.8018556 0 0 1 554.80186,-450 Z m -50,0 A 4.801856,4.8018556 0 0 1 500,-445.19814 4.801856,4.8018556 0 0 1 495.19814,-450 4.801856,4.8018556 0 0 1 500,-454.80186 4.801856,4.8018556 0 0 1 504.80186,-450 Z m -50,0 A 4.801856,4.8018556 0 0 1 450,-445.19814 4.801856,4.8018556 0 0 1 445.19814,-450 4.801856,4.8018556 0 0 1 450,-454.80186 4.801856,4.8018556 0 0 1 454.80186,-450 Z m -50,0 A 4.801856,4.8018556 0 0 1 400,-445.19814 4.801856,4.8018556 0 0 1 395.19814,-450 4.801856,4.8018556 0 0 1 400,-454.80186 4.801856,4.8018556 0 0 1 404.80186,-450 Z m -50,0 A 4.801856,4.8018556 0 0 1 350,-445.19814 4.801856,4.8018556 0 0 1 345.19814,-450 4.801856,4.8018556 0 0 1 350,-454.80186 4.801856,4.8018556 0 0 1 354.80186,-450 Z m -50,0 A 4.801856,4.8018556 0 0 1 300,-445.19814 4.801856,4.8018556 0 0 1 295.19814,-450 4.801856,4.8018556 0 0 1 300,-454.80186 4.801856,4.8018556 0 0 1 304.80186,-450 Z m -50,0 A 4.801856,4.8018556 0 0 1 250,-445.19814 4.801856,4.8018556 0 0 1 245.19814,-450 4.801856,4.8018556 0 0 1 250,-454.80186 4.801856,4.8018556 0 0 1 254.80186,-450 Z m -50,0 A 4.801856,4.8018556 0 0 1 200,-445.19814 4.801856,4.8018556 0 0 1 195.19814,-450 4.801856,4.8018556 0 0 1 200,-454.80186 4.801856,4.8018556 0 0 1 204.80186,-450 Z m -50,0 A 4.801856,4.8018556 0 0 1 150,-445.19814 4.801856,4.8018556 0 0 1 145.19814,-450 4.801856,4.8018556 0 0 1 150,-454.80186 4.801856,4.8018556 0 0 1 154.80186,-450 Z m -50,0 A 4.801856,4.8018556 0 0 1 100,-445.19814 4.801856,4.8018556 0 0 1 95.198144,-450 4.801856,4.8018556 0 0 1 100,-454.80186 4.801856,4.8018556 0 0 1 104.80186,-450 Z m -50.000004,0 A 4.801856,4.8018556 0 0 1 50,-445.19814 4.801856,4.8018556 0 0 1 45.198144,-450 4.801856,4.8018556 0 0 1 50,-454.80186 4.801856,4.8018556 0 0 1 54.801856,-450 Z m -49.9999998,0 A 4.801856,4.8018556 0 0 1 1.937151e-7,-445.19814 4.801856,4.8018556 0 0 1 -4.8018558,-450 4.801856,4.8018556 0 0 1 1.9371509e-7,-454.80186 4.801856,4.8018556 0 0 1 4.8018562,-450 Z M 604.80186,-500 A 4.801856,4.8018556 0 0 1 600,-495.19814 4.801856,4.8018556 0 0 1 595.19814,-500 4.801856,4.8018556 0 0 1 600,-504.80186 4.801856,4.8018556 0 0 1 604.80186,-500 Z m -50,0 A 4.801856,4.8018556 0 0 1 550,-495.19814 4.801856,4.8018556 0 0 1 545.19814,-500 4.801856,4.8018556 0 0 1 550,-504.80186 4.801856,4.8018556 0 0 1 554.80186,-500 Z m -50,0 A 4.801856,4.8018556 0 0 1 500,-495.19814 4.801856,4.8018556 0 0 1 495.19814,-500 4.801856,4.8018556 0 0 1 500,-504.80186 4.801856,4.8018556 0 0 1 504.80186,-500 Z m -50,0 A 4.801856,4.8018556 0 0 1 450,-495.19814 4.801856,4.8018556 0 0 1 445.19814,-500 4.801856,4.8018556 0 0 1 450,-504.80186 4.801856,4.8018556 0 0 1 454.80186,-500 Z m -50,0 A 4.801856,4.8018556 0 0 1 400,-495.19814 4.801856,4.8018556 0 0 1 395.19814,-500 4.801856,4.8018556 0 0 1 400,-504.80186 4.801856,4.8018556 0 0 1 404.80186,-500 Z m -50,0 A 4.801856,4.8018556 0 0 1 350,-495.19814 4.801856,4.8018556 0 0 1 345.19814,-500 4.801856,4.8018556 0 0 1 350,-504.80186 4.801856,4.8018556 0 0 1 354.80186,-500 Z m -50,0 A 4.801856,4.8018556 0 0 1 300,-495.19814 4.801856,4.8018556 0 0 1 295.19814,-500 4.801856,4.8018556 0 0 1 300,-504.80186 4.801856,4.8018556 0 0 1 304.80186,-500 Z m -50,0 A 4.801856,4.8018556 0 0 1 250,-495.19814 4.801856,4.8018556 0 0 1 245.19814,-500 4.801856,4.8018556 0 0 1 250,-504.80186 4.801856,4.8018556 0 0 1 254.80186,-500 Z m -50,0 A 4.801856,4.8018556 0 0 1 200,-495.19814 4.801856,4.8018556 0 0 1 195.19814,-500 4.801856,4.8018556 0 0 1 200,-504.80186 4.801856,4.8018556 0 0 1 204.80186,-500 Z m -50,0 A 4.801856,4.8018556 0 0 1 150,-495.19814 4.801856,4.8018556 0 0 1 145.19814,-500 4.801856,4.8018556 0 0 1 150,-504.80186 4.801856,4.8018556 0 0 1 154.80186,-500 Z m -50,0 A 4.801856,4.8018556 0 0 1 100,-495.19814 4.801856,4.8018556 0 0 1 95.198144,-500 4.801856,4.8018556 0 0 1 100,-504.80186 4.801856,4.8018556 0 0 1 104.80186,-500 Z m -50.000004,0 A 4.801856,4.8018556 0 0 1 50,-495.19814 4.801856,4.8018556 0 0 1 45.198144,-500 4.801856,4.8018556 0 0 1 50,-504.80186 4.801856,4.8018556 0 0 1 54.801856,-500 Z m -49.9999998,0 A 4.801856,4.8018556 0 0 1 1.937151e-7,-495.19814 4.801856,4.8018556 0 0 1 -4.8018558,-500 4.801856,4.8018556 0 0 1 1.9371509e-7,-504.80186 4.801856,4.8018556 0 0 1 4.8018562,-500 Z M 604.80186,-550 A 4.801856,4.8018556 0 0 1 600,-545.19814 4.801856,4.8018556 0 0 1 595.19814,-550 4.801856,4.8018556 0 0 1 600,-554.80186 4.801856,4.8018556 0 0 1 604.80186,-550 Z m -50,0 A 4.801856,4.8018556 0 0 1 550,-545.19814 4.801856,4.8018556 0 0 1 545.19814,-550 4.801856,4.8018556 0 0 1 550,-554.80186 4.801856,4.8018556 0 0 1 554.80186,-550 Z m -50,0 A 4.801856,4.8018556 0 0 1 500,-545.19814 4.801856,4.8018556 0 0 1 495.19814,-550 4.801856,4.8018556 0 0 1 500,-554.80186 4.801856,4.8018556 0 0 1 504.80186,-550 Z m -50,0 A 4.801856,4.8018556 0 0 1 450,-545.19814 4.801856,4.8018556 0 0 1 445.19814,-550 4.801856,4.8018556 0 0 1 450,-554.80186 4.801856,4.8018556 0 0 1 454.80186,-550 Z m -50,0 A 4.801856,4.8018556 0 0 1 400,-545.19814 4.801856,4.8018556 0 0 1 395.19814,-550 4.801856,4.8018556 0 0 1 400,-554.80186 4.801856,4.8018556 0 0 1 404.80186,-550 Z m -50,0 A 4.801856,4.8018556 0 0 1 350,-545.19814 4.801856,4.8018556 0 0 1 345.19814,-550 4.801856,4.8018556 0 0 1 350,-554.80186 4.801856,4.8018556 0 0 1 354.80186,-550 Z m -50,0 A 4.801856,4.8018556 0 0 1 300,-545.19814 4.801856,4.8018556 0 0 1 295.19814,-550 4.801856,4.8018556 0 0 1 300,-554.80186 4.801856,4.8018556 0 0 1 304.80186,-550 Z m -50,0 A 4.801856,4.8018556 0 0 1 250,-545.19814 4.801856,4.8018556 0 0 1 245.19814,-550 4.801856,4.8018556 0 0 1 250,-554.80186 4.801856,4.8018556 0 0 1 254.80186,-550 Z m -50,0 A 4.801856,4.8018556 0 0 1 200,-545.19814 4.801856,4.8018556 0 0 1 195.19814,-550 4.801856,4.8018556 0 0 1 200,-554.80186 4.801856,4.8018556 0 0 1 204.80186,-550 Z m -50,0 A 4.801856,4.8018556 0 0 1 150,-545.19814 4.801856,4.8018556 0 0 1 145.19814,-550 4.801856,4.8018556 0 0 1 150,-554.80186 4.801856,4.8018556 0 0 1 154.80186,-550 Z m -50,0 A 4.801856,4.8018556 0 0 1 100,-545.19814 4.801856,4.8018556 0 0 1 95.198144,-550 4.801856,4.8018556 0 0 1 100,-554.80186 4.801856,4.8018556 0 0 1 104.80186,-550 Z m -50.000004,0 A 4.801856,4.8018556 0 0 1 50,-545.19814 4.801856,4.8018556 0 0 1 45.198144,-550 4.801856,4.8018556 0 0 1 50,-554.80186 4.801856,4.8018556 0 0 1 54.801856,-550 Z m -49.9999998,0 A 4.801856,4.8018556 0 0 1 1.937151e-7,-545.19814 4.801856,4.8018556 0 0 1 -4.8018558,-550 4.801856,4.8018556 0 0 1 1.9371509e-7,-554.80186 4.801856,4.8018556 0 0 1 4.8018562,-550 Z M 604.80186,-600 A 4.801856,4.8018556 0 0 1 600,-595.19814 4.801856,4.8018556 0 0 1 595.19814,-600 4.801856,4.8018556 0 0 1 600,-604.80186 4.801856,4.8018556 0 0 1 604.80186,-600 Z m -50,0 A 4.801856,4.8018556 0 0 1 550,-595.19814 4.801856,4.8018556 0 0 1 545.19814,-600 4.801856,4.8018556 0 0 1 550,-604.80186 4.801856,4.8018556 0 0 1 554.80186,-600 Z m -50,0 A 4.801856,4.8018556 0 0 1 500,-595.19814 4.801856,4.8018556 0 0 1 495.19814,-600 4.801856,4.8018556 0 0 1 500,-604.80186 4.801856,4.8018556 0 0 1 504.80186,-600 Z m -50,0 A 4.801856,4.8018556 0 0 1 450,-595.19814 4.801856,4.8018556 0 0 1 445.19814,-600 4.801856,4.8018556 0 0 1 450,-604.80186 4.801856,4.8018556 0 0 1 454.80186,-600 Z m -50,0 A 4.801856,4.8018556 0 0 1 400,-595.19814 4.801856,4.8018556 0 0 1 395.19814,-600 4.801856,4.8018556 0 0 1 400,-604.80186 4.801856,4.8018556 0 0 1 404.80186,-600 Z m -50,0 A 4.801856,4.8018556 0 0 1 350,-595.19814 4.801856,4.8018556 0 0 1 345.19814,-600 4.801856,4.8018556 0 0 1 350,-604.80186 4.801856,4.8018556 0 0 1 354.80186,-600 Z m -50,0 A 4.801856,4.8018556 0 0 1 300,-595.19814 4.801856,4.8018556 0 0 1 295.19814,-600 4.801856,4.8018556 0 0 1 300,-604.80186 4.801856,4.8018556 0 0 1 304.80186,-600 Z m -50,0 A 4.801856,4.8018556 0 0 1 250,-595.19814 4.801856,4.8018556 0 0 1 245.19814,-600 4.801856,4.8018556 0 0 1 250,-604.80186 4.801856,4.8018556 0 0 1 254.80186,-600 Z m -50,0 A 4.801856,4.8018556 0 0 1 200,-595.19814 4.801856,4.8018556 0 0 1 195.19814,-600 4.801856,4.8018556 0 0 1 200,-604.80186 4.801856,4.8018556 0 0 1 204.80186,-600 Z m -50,0 A 4.801856,4.8018556 0 0 1 150,-595.19814 4.801856,4.8018556 0 0 1 145.19814,-600 4.801856,4.8018556 0 0 1 150,-604.80186 4.801856,4.8018556 0 0 1 154.80186,-600 Z m -50,0 A 4.801856,4.8018556 0 0 1 100,-595.19814 4.801856,4.8018556 0 0 1 95.198144,-600 4.801856,4.8018556 0 0 1 100,-604.80186 4.801856,4.8018556 0 0 1 104.80186,-600 Z m -50.000004,0 A 4.801856,4.8018556 0 0 1 50,-595.19814 4.801856,4.8018556 0 0 1 45.198144,-600 4.801856,4.8018556 0 0 1 50,-604.80186 4.801856,4.8018556 0 0 1 54.801856,-600 Z m -49.9999998,0 A 4.801856,4.8018556 0 0 1 1.937151e-7,-595.19814 4.801856,4.8018556 0 0 1 -4.8018558,-600 4.801856,4.8018556 0 0 1 1.9371509e-7,-604.80186 4.801856,4.8018556 0 0 1 4.8018562,-600 Z" />
  </g>
</svg>
